<svg width="128" height="128" viewBox="0 0 128 128" fill="none" xmlns="http://www.w3.org/2000/svg">
  <rect x="6" y="6" width="116" height="116" rx="28" fill="#26392F"/>
  <path d="M25 28C25 15.85 34.85 6 47 6H81C103.64 6 122 24.36 122 47V81C122 103.64 103.64 122 81 122H47C24.36 122 6 103.64 6 81V47C6 42.42 6.75 38.02 8.14 33.91C13.31 31.31 18.91 29.31 25 28Z" fill="#2F473B"/>
  <path d="M34 34V83H60" stroke="#FFFAF0" stroke-width="13" stroke-linecap="round" stroke-linejoin="round"/>
  <path d="M66 34V83H94" stroke="#FFFAF0" stroke-width="13" stroke-linecap="round" stroke-linejoin="round"/>
  <path d="M60 83L78 62L94 83" stroke="#D6B56D" stroke-width="7" stroke-linecap="round" stroke-linejoin="round"/>
  <circle cx="60" cy="83" r="8" fill="#D6B56D"/>
  <circle cx="78" cy="62" r="8" fill="#D6B56D"/>
  <circle cx="94" cy="83" r="8" fill="#D6B56D"/>
  <circle cx="78" cy="62" r="3.2" fill="#26392F"/>
  <path d="M34 34V83H60" stroke="#FFFAF0" stroke-width="5" stroke-linecap="round" stroke-linejoin="round"/>
  <path d="M66 34V83H94" stroke="#FFFAF0" stroke-width="5" stroke-linecap="round" stroke-linejoin="round"/>
</svg>
