<svg width="1200" height="675" viewBox="0 0 1200 675" fill="none" xmlns="http://www.w3.org/2000/svg">
  <rect width="1200" height="675" rx="32" fill="#F7F3EA"/>

  <rect x="52" y="48" width="1096" height="579" rx="28" fill="#FFFFFF" stroke="#DED5C7" stroke-width="2"/>
  <rect x="52" y="48" width="1096" height="74" rx="28" fill="#EEF3EE"/>
  <circle cx="94" cy="86" r="10" fill="#E86F58"/>
  <circle cx="126" cy="86" r="10" fill="#E6B84F"/>
  <circle cx="158" cy="86" r="10" fill="#65B96A"/>
  <rect x="222" y="70" width="430" height="32" rx="16" fill="#FFFCF7" stroke="#D9CFBF"/>
  <text x="248" y="92" fill="#6B6257" font-family="Inter, Arial, sans-serif" font-size="17">article.example.com/ai-agents</text>

  <rect x="92" y="158" width="650" height="412" rx="22" fill="#FFFFFF" stroke="#E5DED5"/>
  <text x="132" y="218" fill="#1E222A" font-family="Inter, Arial, sans-serif" font-size="34" font-weight="850">AI agents are everywhere</text>
  <text x="132" y="276" fill="#334155" font-family="Inter, Arial, sans-serif" font-size="23">The article assumes you already understand why</text>
  <text x="132" y="315" fill="#334155" font-family="Inter, Arial, sans-serif" font-size="23">an <tspan fill="#173B63" font-weight="800">agent</tspan> is different from a normal chatbot.</text>
  <text x="132" y="376" fill="#334155" font-family="Inter, Arial, sans-serif" font-size="23">LinkLog helps reveal the missing context.</text>

  <rect x="384" y="288" width="92" height="42" rx="10" fill="#D8E7FF"/>
  <text x="407" y="316" fill="#173B63" font-family="Inter, Arial, sans-serif" font-size="22" font-weight="800">agent</text>

  <rect x="402" y="354" width="164" height="48" rx="24" fill="#26392F"/>
  <text x="452" y="385" fill="#FFFAF0" font-family="Inter, Arial, sans-serif" font-size="20" font-weight="800">Explore</text>

  <path d="M566 379 C620 379 638 320 696 320" stroke="#26392F" stroke-width="4" stroke-linecap="round"/>
  <circle cx="566" cy="379" r="6" fill="#26392F"/>

  <rect x="772" y="150" width="322" height="420" rx="24" fill="#FBF8F1" stroke="#DED3C2" stroke-width="2"/>
  <text x="804" y="205" fill="#1D1A15" font-family="Inter, Arial, sans-serif" font-size="30" font-weight="850">LinkLog</text>
  <text x="804" y="235" fill="#746A5B" font-family="Inter, Arial, sans-serif" font-size="16">Knowledge map for readers</text>
  <line x1="804" y1="265" x2="1062" y2="265" stroke="#E2D8C8" stroke-width="2"/>

  <text x="804" y="302" fill="#7B6F60" font-family="Inter, Arial, sans-serif" font-size="14" font-weight="850">SELECTED CONCEPT</text>
  <text x="804" y="352" fill="#1D1A15" font-family="Inter, Arial, sans-serif" font-size="46" font-weight="900">agent</text>
  <text x="804" y="386" fill="#665F53" font-family="Inter, Arial, sans-serif" font-size="18">What should I understand first?</text>

  <rect x="804" y="418" width="258" height="72" rx="14" fill="#FFFDF7" stroke="#E3DAC9"/>
  <text x="828" y="463" fill="#26392F" font-family="Inter, Arial, sans-serif" font-size="30" font-weight="850">4</text>
  <text x="864" y="463" fill="#7B6F60" font-family="Inter, Arial, sans-serif" font-size="17">prerequisites</text>

  <text x="804" y="528" fill="#2C2923" font-family="Inter, Arial, sans-serif" font-size="19" font-weight="850">Knowledge compass</text>
  <circle cx="822" cy="568" r="10" fill="#26392F"/>
  <rect x="850" y="548" width="212" height="42" rx="10" fill="#FFFAF0" stroke="#CDBF9E" stroke-width="2"/>
  <text x="874" y="576" fill="#2B2822" font-family="Inter, Arial, sans-serif" font-size="18" font-weight="800">LLM</text>
  <rect x="850" y="604" width="212" height="42" rx="10" fill="#FFFAF0" stroke="#CDBF9E" stroke-width="2"/>
  <text x="874" y="632" fill="#2B2822" font-family="Inter, Arial, sans-serif" font-size="18" font-weight="800">Tool use</text>
</svg>
